<svg width="575" height="141" viewBox="0 0 575 141" fill="none" xmlns="http://www.w3.org/2000/svg">
<path d="M36.08 38.608V78.928C36.08 82.96 37.072 86.064 39.056 88.24C41.04 90.416 43.952 91.504 47.792 91.504C51.632 91.504 54.576 90.416 56.624 88.24C58.672 86.064 59.696 82.96 59.696 78.928V38.608H76.112V78.832C76.112 84.848 74.832 89.936 72.272 94.096C69.712 98.256 66.256 101.392 61.904 103.504C57.616 105.616 52.816 106.672 47.504 106.672C42.192 106.672 37.424 105.648 33.2 103.6C29.04 101.488 25.744 98.352 23.312 94.192C20.88 89.968 19.664 84.848 19.664 78.832V38.608H36.08ZM130.359 71.44C134.264 72.272 137.4 74.224 139.768 77.296C142.136 80.304 143.32 83.76 143.32 87.664C143.32 93.296 141.336 97.776 137.367 101.104C133.463 104.368 127.991 106 120.952 106H89.5595V38.608H119.896C126.743 38.608 132.087 40.176 135.927 43.312C139.831 46.448 141.783 50.704 141.783 56.08C141.783 60.048 140.727 63.344 138.615 65.968C136.567 68.592 133.815 70.416 130.359 71.44ZM105.975 65.872H116.728C119.416 65.872 121.464 65.296 122.871 64.144C124.343 62.928 125.079 61.168 125.079 58.864C125.079 56.56 124.343 54.8 122.871 53.584C121.464 52.368 119.416 51.76 116.728 51.76H105.975V65.872ZM118.072 92.752C120.823 92.752 122.935 92.144 124.407 90.928C125.944 89.648 126.712 87.824 126.712 85.456C126.712 83.088 125.912 81.232 124.312 79.888C122.775 78.544 120.631 77.872 117.88 77.872H105.975V92.752H118.072ZM151.977 72.208C151.977 65.552 153.417 59.632 156.297 54.448C159.177 49.2 163.177 45.136 168.297 42.256C173.481 39.312 179.337 37.84 185.865 37.84C193.865 37.84 200.713 39.952 206.409 44.176C212.105 48.4 215.913 54.16 217.833 61.456H199.785C198.441 58.64 196.521 56.496 194.025 55.024C191.593 53.552 188.809 52.816 185.673 52.816C180.617 52.816 176.521 54.576 173.385 58.096C170.249 61.616 168.681 66.32 168.681 72.208C168.681 78.096 170.249 82.8 173.385 86.32C176.521 89.84 180.617 91.6 185.673 91.6C188.809 91.6 191.593 90.864 194.025 89.392C196.521 87.92 198.441 85.776 199.785 82.96H217.833C215.913 90.256 212.105 96.016 206.409 100.24C200.713 104.4 193.865 106.48 185.865 106.48C179.337 106.48 173.481 105.04 168.297 102.16C163.177 99.216 159.177 95.152 156.297 89.968C153.417 84.784 151.977 78.864 151.977 72.208ZM276.453 106.672C271.525 106.672 267.109 105.872 263.205 104.272C259.301 102.672 256.165 100.304 253.797 97.168C251.493 94.032 250.277 90.256 250.149 85.84H267.621C267.877 88.336 268.741 90.256 270.213 91.6C271.685 92.88 273.605 93.52 275.973 93.52C278.405 93.52 280.325 92.976 281.733 91.888C283.141 90.736 283.845 89.168 283.845 87.184C283.845 85.52 283.269 84.144 282.117 83.056C281.029 81.968 279.653 81.072 277.989 80.368C276.389 79.664 274.085 78.864 271.077 77.968C266.725 76.624 263.173 75.28 260.421 73.936C257.669 72.592 255.301 70.608 253.317 67.984C251.333 65.36 250.341 61.936 250.341 57.712C250.341 51.44 252.613 46.544 257.157 43.024C261.701 39.44 267.621 37.648 274.917 37.648C282.341 37.648 288.325 39.44 292.869 43.024C297.413 46.544 299.845 51.472 300.165 57.808H282.405C282.277 55.632 281.477 53.936 280.005 52.72C278.533 51.44 276.645 50.8 274.341 50.8C272.357 50.8 270.757 51.344 269.541 52.432C268.325 53.456 267.717 54.96 267.717 56.944C267.717 59.12 268.741 60.816 270.789 62.032C272.837 63.248 276.037 64.56 280.389 65.968C284.741 67.44 288.261 68.848 290.949 70.192C293.701 71.536 296.069 73.488 298.053 76.048C300.037 78.608 301.029 81.904 301.029 85.936C301.029 89.776 300.037 93.264 298.053 96.4C296.133 99.536 293.317 102.032 289.605 103.888C285.893 105.744 281.509 106.672 276.453 106.672ZM396.259 93.328H417.763V106H379.843V38.608H396.259V93.328ZM469.465 94.096H444.313L440.281 106H423.097L447.481 38.608H466.489L490.873 106H473.497L469.465 94.096ZM465.241 81.424L456.889 56.752L448.633 81.424H465.241ZM534.583 106L520.567 80.56H516.631V106H500.215V38.608H527.767C533.079 38.608 537.591 39.536 541.303 41.392C545.079 43.248 547.895 45.808 549.751 49.072C551.607 52.272 552.535 55.856 552.535 59.824C552.535 64.304 551.255 68.304 548.695 71.824C546.199 75.344 542.487 77.84 537.559 79.312L553.111 106H534.583ZM516.631 68.944H526.807C529.815 68.944 532.055 68.208 533.527 66.736C535.063 65.264 535.831 63.184 535.831 60.496C535.831 57.936 535.063 55.92 533.527 54.448C532.055 52.976 529.815 52.24 526.807 52.24H516.631V68.944Z" fill="white"/>
<path d="M336.124 105.532C336.089 105.267 336.068 104.528 336.068 103.873C336.075 102.027 336.284 101.177 337.351 98.6812C338.082 96.9666 338.076 96.9808 337.957 96.8762C337.901 96.8343 337.532 96.7373 337.127 96.6669C336.347 96.5203 335.043 96.2349 334.437 96.0741L334.068 95.9761L333.908 96.2273C333.825 96.3662 333.65 96.6735 333.518 96.9028C333.121 97.6136 332.055 99.3072 331.518 100.081C331.017 100.798 330.988 100.827 330.327 101.203C328.905 102.018 326.501 102.931 325.776 102.931C325.511 102.931 325.504 102.924 325.504 102.694C325.504 102.534 325.831 101.767 326.529 100.31L327.546 98.1635L327.33 97.0141C327.204 96.3795 327.044 95.4318 326.967 94.9161C326.786 93.6544 326.758 93.5431 326.626 93.4251C326.514 93.3205 326.466 93.3414 326.089 93.6345C324.674 94.722 324.235 95.0217 323.601 95.3348C322.708 95.7734 321.754 96.0313 321.029 96.0313C320.562 96.0313 320.444 96.0589 320.075 96.2615C319.643 96.4918 317.942 97.6621 317.873 97.781C317.845 97.8163 317.705 97.8438 317.552 97.8438H317.28V97.5375C317.28 97.1607 317.566 96.2273 317.859 95.6488C318.534 94.2967 319.796 92.9237 321.984 91.1539C322.444 90.7771 322.883 90.408 322.953 90.3242L323.085 90.1777L321.88 88.937C321.217 88.2614 320.59 87.6125 320.486 87.5088L320.305 87.3137L319.852 87.5716C319.169 87.955 317.475 88.798 316.619 89.1748L315.852 89.5164L315.12 89.5022C313.733 89.4812 311.42 89.112 310.284 88.7286C309.726 88.5402 309.72 88.5402 309.699 88.29C309.678 88.0464 309.692 88.0254 310.116 87.7676C310.36 87.6144 310.611 87.4679 310.681 87.426C310.848 87.3356 312.974 85.9902 313.412 85.7048C313.719 85.5031 313.802 85.3841 314.165 84.6734C314.388 84.2347 314.813 83.4535 315.113 82.9312C316.088 81.2518 316.116 81.1957 316.033 81.091C315.977 81.0215 315.545 80.9863 314.297 80.9587C313.272 80.9312 312.465 80.875 312.157 80.8122C311.119 80.5962 310.088 80.1918 309.265 79.6828C308.826 79.4107 308.303 79.2651 307.014 79.0558L306.261 78.9368L306.282 78.6856C306.303 78.4421 306.317 78.4278 307.223 77.9749C308.233 77.4658 309.209 77.1242 310.066 76.9711C310.644 76.8731 312.059 76.7693 314.024 76.6856C314.888 76.6504 315.154 76.6162 315.265 76.5258L315.404 76.4144L315.265 75.3345C315.188 74.7417 315.105 73.9548 315.084 73.5923C315.056 73.2298 315.021 72.8816 315.007 72.8188C314.986 72.735 314.833 72.6798 314.506 72.617C313.335 72.4153 311.516 72.0452 310.68 71.8501L309.767 71.6342L309.008 70.9443C307.92 69.9614 307.022 68.9376 306.276 67.8225C306.039 67.4666 305.983 67.3344 306.004 67.126C306.025 66.8748 306.032 66.8682 306.325 66.8472C306.485 66.833 307.412 66.91 308.381 67.0071C310.98 67.2716 310.96 67.9138 312.5 67.0071C313.232 66.5818 313.712 65.4875 314.074 65.2782C314.436 65.0622 314.799 64.8462 314.875 64.7901C315.014 64.6854 315.014 64.6854 314.875 64.5323C314.798 64.4419 314.449 64.1488 314.101 63.8634C312.31 62.4352 311.579 61.5703 310.91 60.0726C310.638 59.4523 310.22 58.8528 309.447 57.9822C309.042 57.5293 308.987 57.4313 309 57.2153C309.021 56.9717 309.021 56.9717 309.377 56.9508C309.837 56.9232 310.98 57.1601 311.914 57.4665C313.272 57.9128 314.304 58.4979 316.604 60.1078C316.903 60.3172 317.175 60.4913 317.217 60.4913C317.253 60.4913 317.364 60.3314 317.475 60.1354C317.58 59.9337 318.033 59.1602 318.479 58.4075L319.294 57.0412L318.479 56.2048C317.462 55.1734 316.416 54.0516 316.186 53.7519C315.775 53.2153 315.412 51.0554 315.35 48.8042L315.308 47.2504H315.622C315.921 47.2504 315.978 47.2856 316.73 47.9335C317.169 48.317 317.936 48.9926 318.43 49.4455C318.932 49.8984 319.406 50.3094 319.489 50.3656C319.573 50.4217 319.928 50.5121 320.291 50.5673C321.113 50.6995 323.622 51.1458 323.775 51.1943C323.838 51.2152 323.963 51.1524 324.06 51.0687L324.235 50.9088L323.998 50.1772C323.865 49.7728 323.656 49.0554 323.53 48.5739C323.321 47.7442 323.308 47.6405 323.308 46.3788C323.308 45.2989 323.335 44.8802 323.475 44.1L323.643 43.1523L323.483 42.2113C323.281 40.9848 323.288 40.9496 323.699 40.922L324.026 40.9011L324.626 41.5148C326.103 43.0343 326.688 44.1076 327.559 46.9021C328.012 48.3722 328.152 48.7347 328.284 48.8184C328.326 48.8394 328.723 48.6719 329.177 48.4493C329.629 48.219 330.313 47.8983 330.696 47.7385C331.08 47.571 331.414 47.4178 331.442 47.3969C331.463 47.376 331.428 46.9925 331.358 46.5539C331.163 45.3417 330.933 43.2855 330.92 42.5957L330.905 41.9753L331.428 40.9373C331.895 40.0038 332.849 38.4777 333.644 37.411C333.929 37.0209 333.958 37.0067 334.25 37.0067C334.424 37.0067 334.564 37.0209 334.564 37.0343C334.564 37.1246 335.275 41.4596 335.31 41.5709C335.366 41.7451 338.39 44.8669 338.564 44.923C338.752 44.9858 338.843 44.8536 339.199 44.0106C339.951 42.2123 340.606 41.1884 341.979 39.7041C342.78 38.8402 343.094 38.3939 343.595 37.4253C343.79 37.0485 343.805 37.0419 344.125 37.0209L344.446 37L344.53 37.3692C344.704 38.1989 344.809 39.1884 344.809 40.1428C344.809 40.9791 344.781 41.2722 344.634 41.8497C344.454 42.609 344.182 43.4244 343.833 44.2884C343.708 44.5948 343.534 45.0553 343.443 45.3132C343.283 45.7803 343.283 45.787 343.422 45.8641C343.499 45.8993 344.098 46.0382 344.76 46.1704C345.422 46.296 346.175 46.4559 346.433 46.5187C346.691 46.5748 346.934 46.6091 346.963 46.5881C346.998 46.5739 347.221 46.219 347.464 45.8079C348.126 44.6652 349.729 42.2608 349.924 42.1076C350.022 42.0381 350.578 41.7384 351.165 41.4454C352.9 40.5814 354.921 39.863 355.617 39.863C355.952 39.863 355.959 39.8697 355.959 40.079C355.959 40.3017 355.82 40.5804 354.81 42.3721C354.496 42.9297 354.106 43.6338 353.952 43.9402L353.667 44.4977L353.765 44.9716C353.821 45.2294 353.981 46.1076 354.113 46.9231C354.245 47.7385 354.385 48.5187 354.427 48.6586C354.559 49.1182 354.664 49.1115 355.515 48.5958C356.532 47.9821 357.835 47.3627 358.469 47.1885C359.236 46.9792 359.618 46.9164 360.859 46.7984C362.163 46.6728 362.281 46.6452 363.444 46.2761C363.981 46.1086 364.462 45.9973 364.671 45.9973C365.019 45.9973 365.019 45.9973 365.019 46.2275C365.019 46.6319 363.952 48.0468 362.858 49.0848C361.98 49.9212 360.955 50.6044 359.29 51.4683C358.573 51.8375 357.966 52.1724 357.938 52.2067C357.917 52.2419 358.502 52.8965 359.242 53.6558L360.587 55.0355L361.438 54.6311C362.49 54.1296 364.086 53.4674 364.874 53.2029L365.466 53.0078L366.546 53.161C367.989 53.3703 369.013 53.6073 370.303 54.0183L371.362 54.3666V54.6311C371.362 54.8956 371.355 54.8956 370.748 55.2029C370.413 55.3704 369.473 55.8509 368.658 56.2619L367.18 57.0145L366.929 57.5027C366.796 57.7672 366.308 58.6521 365.855 59.4542C365.396 60.2629 365.019 60.9661 365.019 61.0222C365.019 61.1963 365.263 61.2449 366.518 61.2943C367.208 61.3153 367.995 61.3847 368.26 61.4333C369.249 61.6217 370.337 62.1022 371.396 62.8129C372.19 63.3496 372.392 63.4266 373.821 63.7054L374.985 63.9357V64.1517C374.985 64.361 374.95 64.3886 374.379 64.6674C373.57 65.0575 372.337 65.4828 371.48 65.6569C370.797 65.7958 370.692 65.7958 368.308 65.7197C366.601 65.6636 365.82 65.6569 365.772 65.7054C365.716 65.7616 365.744 66.0889 365.849 66.7787C365.926 67.3296 366.044 68.1793 366.1 68.6741C366.156 69.1689 366.211 69.5866 366.226 69.6008C366.24 69.6075 366.783 69.7264 367.431 69.8587C368.804 70.1375 370.198 70.4648 370.867 70.6674C371.264 70.793 371.439 70.9044 371.961 71.3573C372.741 72.0328 373.822 73.1898 374.345 73.9149C374.979 74.7722 375.404 75.5181 375.404 75.7551C375.404 75.9501 375.383 75.9644 375.146 75.9644C375.007 75.9644 374.108 75.7903 373.146 75.5809C372.184 75.3716 371.173 75.1699 370.902 75.1214L370.401 75.0376L369.857 75.3373C369.551 75.5048 369.132 75.7341 368.924 75.8597C368.715 75.9853 368.325 76.2013 368.052 76.3478C367.168 76.8217 366.728 77.0795 366.554 77.2194L366.38 77.3659L366.937 77.8607C368.916 79.6381 369.738 80.7323 370.331 82.3555C370.52 82.8855 370.61 83.0244 371.056 83.4916C371.342 83.7847 371.837 84.2585 372.165 84.5439C372.68 84.9902 372.758 85.0872 372.758 85.2899C372.758 85.5059 372.751 85.5126 372.451 85.5126C371.504 85.5126 369.9 85.1852 368.89 84.7809C367.956 84.4117 366.785 83.6172 365.307 82.3489C364.792 81.9102 364.345 81.561 364.325 81.5753C364.297 81.5962 363.955 82.1681 363.565 82.8436C363.182 83.5268 362.729 84.307 362.561 84.5715L362.255 85.0597L363.098 85.9655C364.568 87.5402 365.767 88.976 365.823 89.2272C366.046 90.1891 366.255 92.3005 366.311 94.0702L366.353 95.408H366.089C365.831 95.408 365.747 95.331 364.047 93.6307C362.423 91.9998 362.248 91.8533 361.991 91.819C361.837 91.7981 360.903 91.6725 359.913 91.5336C358.924 91.4013 358.031 91.2967 357.928 91.3109C357.656 91.3385 357.663 91.4993 357.984 92.5098C358.402 93.8343 358.5 94.4822 358.5 95.8267C358.493 96.4613 358.443 97.3671 358.381 97.8477C358.248 98.8439 358.262 98.9485 358.75 100.51C358.903 100.99 359.029 101.485 359.029 101.604C359.029 101.806 359.008 101.82 358.792 101.82C358.332 101.82 356.638 100.273 355.886 99.1645C355.419 98.468 355.035 97.5755 354.464 95.7915C353.969 94.2653 353.718 93.5964 353.628 93.5964C353.607 93.5964 353.098 93.84 352.492 94.1473C351.892 94.447 351.091 94.8305 350.722 94.9903C350.345 95.1578 350.039 95.3253 350.039 95.3671C350.039 95.409 350.102 95.9942 350.171 96.6631C350.345 98.1959 350.485 100.391 350.443 100.789C350.38 101.367 349.301 103.437 348.416 104.677C347.537 105.911 347.523 105.931 347.273 105.931C347.001 105.931 347.057 106.162 346.659 103.611C346.485 102.502 346.318 101.479 346.276 101.332C346.22 101.137 346.276 101.332 345.5 99.5C343.5 96 343.443 96.8195 342.617 97.645C342.561 97.7011 342.338 98.154 342.108 98.6621C341.196 100.676 340.45 101.694 338.93 102.989C338.199 103.617 337.676 104.251 337.077 105.262C336.659 105.958 336.624 106 336.408 106H336.185L336.129 105.533L336.124 105.532ZM343.483 90.5345C344.995 90.2909 345.985 90.0255 347.211 89.5383C347.79 89.308 349.301 88.6116 349.399 88.5345C349.414 88.5202 349.337 88.3746 349.232 88.2138C348.849 87.6353 344.584 81.9692 342.765 79.6286L342.18 78.8693L340.668 78.8626L339.156 78.856L338.961 79.0995C337.56 80.856 333.03 86.8285 332.11 88.1311L331.859 88.4936L332.458 88.7724C334.521 89.741 336.786 90.3547 339.58 90.6953C340.207 90.7724 342.647 90.6734 343.483 90.5345ZM328.821 83.3146C330.716 80.5972 332.779 77.6143 333.546 76.4848L334.208 75.5096L333.846 74.7779C333.455 73.99 333.198 73.1746 333.128 72.4848C333.101 72.2545 333.044 72.0319 333.003 71.9967C332.801 71.8292 321.908 68.1289 321.81 68.1917C321.762 68.2193 321.65 68.812 321.525 69.7597C321.413 70.5333 321.413 72.6104 321.525 73.4877C321.726 75.1604 322.138 76.9235 322.619 78.1709C323.267 79.8645 324.417 81.837 325.608 83.3213C326.298 84.1786 327.393 85.3213 327.462 85.2519C327.49 85.2243 328.103 84.3527 328.821 83.3146ZM354.432 84.6943C357.185 81.7532 358.92 78.3108 359.505 74.6313C359.784 72.8958 359.853 71.3211 359.715 69.8301C359.631 68.8891 359.394 67.4533 359.318 67.3772C359.283 67.342 358.335 67.6836 357.206 68.1298C354.963 69.0147 349.15 71.3354 348.628 71.5657C348.272 71.7188 348.265 71.7331 348.189 72.4087C348.105 73.168 347.848 74.0462 347.485 74.7646L347.129 75.482L347.701 76.3326C349.499 79.0091 353.82 85.2319 353.875 85.2319C353.903 85.2319 354.154 84.9883 354.433 84.6952L354.432 84.6943ZM341.491 75.2936C342.606 75.0081 343.652 74.1851 344.174 73.1822C344.474 72.6037 344.669 71.9348 344.669 71.4677C344.669 70.499 344.188 69.4115 343.415 68.6379C342.773 67.9966 342.153 67.6693 341.234 67.4885C340.67 67.3772 340.586 67.3772 340.049 67.4819C338.704 67.7464 337.645 68.5551 337.039 69.7816C336.628 70.6246 336.523 71.2593 336.676 72.0186C337.136 74.2555 339.435 75.8236 341.491 75.2936ZM335.47 66.0251C336.027 65.4609 336.703 64.9728 337.4 64.6379L337.832 64.4285L337.839 64.0108C337.867 62.575 337.86 52.4074 337.832 52.3799C337.776 52.3237 335.86 52.7281 335.052 52.965C332.878 53.613 330.536 54.8185 328.71 56.2267C327.943 56.8195 326.375 58.3942 325.7 59.2372C325.407 59.5997 324.982 60.1992 324.745 60.5541C324.314 61.2163 323.414 62.9309 323.414 63.0974C323.414 63.1459 323.7 63.2649 324.098 63.3762C325.707 63.8434 333.777 66.2269 334.238 66.3724C334.516 66.4628 334.788 66.5399 334.844 66.5466C334.9 66.5532 335.185 66.3163 335.471 66.0242L335.47 66.0251ZM347.923 65.8158C348.759 65.5228 349.602 65.2306 349.791 65.1612C350.341 64.9728 355.658 63.0708 357.233 62.4989L357.421 62.4295L357.101 61.8234C355.505 58.869 352.871 56.2343 349.826 54.5483C348.599 53.8727 346.704 53.1334 345.331 52.7918C344.606 52.6177 343.547 52.4084 343.366 52.4084C343.297 52.4084 343.276 53.6491 343.276 58.3666V64.3182L343.854 64.597C344.628 64.9737 345.185 65.3496 345.757 65.8929C346.022 66.1365 346.273 66.3391 346.321 66.3458C346.37 66.3458 347.088 66.1089 347.925 65.8158H347.923Z" fill="#F6C32F"/>
</svg>
